<?xml version="1.0" standalone="no"?><!DOCTYPE svg PUBLIC "-//W3C//DTD SVG 1.1//EN" "http://www.w3.org/Graphics/SVG/1.1/DTD/svg11.dtd"><svg t="1704635019792" class="icon" viewBox="0 0 1024 1024" version="1.1" xmlns="http://www.w3.org/2000/svg" p-id="1026" xmlns:xlink="http://www.w3.org/1999/xlink" width="200" height="200"><path d="M512.2048 101.08928a197.632 197.632 0 1 1 0 395.264 197.632 197.632 0 0 1 0-395.264z m0 51.2a146.432 146.432 0 1 0 0 292.864 146.432 146.432 0 0 0 0-292.864z m134.06208 396.98432a257.88416 257.88416 0 0 1 252.43648 205.04576l22.28224 106.2912a81.92 81.92 0 0 1-80.19968 98.7136H183.62368a81.92 81.92 0 0 1-80.19968-98.7136l22.28224-106.2912a257.88416 257.88416 0 0 1 252.43648-205.04576h268.12416z m0 51.2H378.14272a206.72512 206.72512 0 0 0-200.17152 155.15648l-2.17088 9.17504-22.24128 106.2912a30.72 30.72 0 0 0 25.88672 36.74112l4.17792 0.28672h657.16224a30.72 30.72 0 0 0 30.63808-32.89088l-0.57344-4.096-22.28224-106.33216a206.72512 206.72512 0 0 0-192.88064-164.12672l-9.4208-0.2048z" p-id="1027"></path></svg>